<svg width="117" height="16" viewBox="0 0 117 16" fill="none" xmlns="http://www.w3.org/2000/svg">
<path d="M16.539 6.09701C16.5218 6.0443 16.4902 5.99744 16.4478 5.96174C16.4054 5.92604 16.3539 5.90293 16.299 5.89501L10.939 5.11601L8.54198 0.260011C8.51745 0.210713 8.47965 0.169235 8.43284 0.140241C8.38602 0.111247 8.33205 0.0958862 8.27699 0.0958862C8.22192 0.0958862 8.16794 0.111247 8.12113 0.140241C8.07432 0.169235 8.03652 0.210713 8.01198 0.260011L5.61298 5.11701L0.252985 5.89601C0.198434 5.90414 0.147224 5.9273 0.105092 5.96289C0.0629609 5.99848 0.0315721 6.0451 0.0144429 6.09753C-0.00268629 6.14995 -0.00487919 6.20611 0.00810988 6.25971C0.021099 6.31332 0.0487569 6.36224 0.0879849 6.40101L3.96798 10.181L3.05098 15.521C3.04198 15.5754 3.04831 15.6313 3.06926 15.6823C3.0902 15.7333 3.12494 15.7775 3.16958 15.8099C3.21422 15.8423 3.267 15.8616 3.322 15.8657C3.377 15.8698 3.43205 15.8584 3.48098 15.833L8.27598 13.313L13.07 15.833C13.119 15.8589 13.1742 15.8706 13.2295 15.8667C13.2848 15.8627 13.3379 15.8433 13.3827 15.8107C13.4275 15.7781 13.4622 15.7336 13.483 15.6822C13.5037 15.6308 13.5096 15.5746 13.5 15.52L12.584 10.182L16.464 6.40001C16.544 6.32001 16.574 6.20301 16.539 6.09601V6.09701Z" fill="#EF9546"/>
<path d="M41.5392 6.00113C41.5221 5.94841 41.4905 5.90155 41.4481 5.86585C41.4057 5.83016 41.3541 5.80704 41.2992 5.79913L35.9392 5.02013L33.5422 0.164125C33.5177 0.114826 33.4799 0.0733484 33.4331 0.0443544C33.3863 0.0153604 33.3323 0 33.2772 0C33.2222 0 33.1682 0.0153604 33.1214 0.0443544C33.0746 0.0733484 33.0368 0.114826 33.0122 0.164125L30.6132 5.02113L25.2532 5.80013C25.1987 5.80825 25.1475 5.83141 25.1053 5.867C25.0632 5.9026 25.0318 5.94922 25.0147 6.00164C24.9976 6.05407 24.9954 6.11023 25.0084 6.16383C25.0213 6.21743 25.049 6.26636 25.0882 6.30513L28.9682 10.0851L28.0512 15.4251C28.0422 15.4795 28.0486 15.5354 28.0695 15.5864C28.0904 15.6374 28.1252 15.6816 28.1698 15.714C28.2145 15.7464 28.2672 15.7657 28.3222 15.7698C28.3772 15.7739 28.4323 15.7626 28.4812 15.7371L33.2762 13.2171L38.0702 15.7371C38.1192 15.7631 38.1745 15.7747 38.2298 15.7708C38.2851 15.7668 38.3381 15.7475 38.3829 15.7148C38.4277 15.6822 38.4625 15.6377 38.4832 15.5863C38.504 15.5349 38.5099 15.4787 38.5002 15.4241L37.5842 10.0861L41.4642 6.30413C41.5442 6.22413 41.5742 6.10713 41.5392 6.00013V6.00113Z" fill="#EF9546"/>
<path d="M66.5392 6.00113C66.5221 5.94841 66.4905 5.90155 66.4481 5.86585C66.4057 5.83016 66.3541 5.80704 66.2992 5.79913L60.9392 5.02013L58.5422 0.164125C58.5177 0.114826 58.4799 0.0733484 58.4331 0.0443544C58.3863 0.0153604 58.3323 0 58.2772 0C58.2222 0 58.1682 0.0153604 58.1214 0.0443544C58.0746 0.0733484 58.0368 0.114826 58.0122 0.164125L55.6132 5.02113L50.2532 5.80013C50.1987 5.80825 50.1475 5.83141 50.1053 5.867C50.0632 5.9026 50.0318 5.94922 50.0147 6.00164C49.9976 6.05407 49.9954 6.11023 50.0084 6.16383C50.0213 6.21743 50.049 6.26636 50.0882 6.30513L53.9682 10.0851L53.0512 15.4251C53.0422 15.4795 53.0486 15.5354 53.0695 15.5864C53.0904 15.6374 53.1252 15.6816 53.1698 15.714C53.2145 15.7464 53.2672 15.7657 53.3222 15.7698C53.3772 15.7739 53.4323 15.7626 53.4812 15.7371L58.2762 13.2171L63.0702 15.7371C63.1192 15.7631 63.1745 15.7747 63.2298 15.7708C63.2851 15.7668 63.3381 15.7475 63.3829 15.7148C63.4277 15.6822 63.4625 15.6377 63.4832 15.5863C63.504 15.5349 63.5099 15.4787 63.5002 15.4241L62.5842 10.0861L66.4642 6.30413C66.5442 6.22413 66.5742 6.10713 66.5392 6.00013V6.00113Z" fill="#EF9546"/>
<path d="M91.5392 6.00113C91.5221 5.94841 91.4905 5.90155 91.4481 5.86585C91.4057 5.83016 91.3541 5.80704 91.2992 5.79913L85.9392 5.02013L83.5422 0.164125C83.5177 0.114826 83.4799 0.0733484 83.4331 0.0443544C83.3863 0.0153604 83.3323 0 83.2772 0C83.2222 0 83.1682 0.0153604 83.1214 0.0443544C83.0746 0.0733484 83.0368 0.114826 83.0122 0.164125L80.6132 5.02113L75.2532 5.80013C75.1987 5.80825 75.1475 5.83141 75.1053 5.867C75.0632 5.9026 75.0318 5.94922 75.0147 6.00164C74.9976 6.05407 74.9954 6.11023 75.0084 6.16383C75.0213 6.21743 75.049 6.26636 75.0882 6.30513L78.9682 10.0851L78.0512 15.4251C78.0422 15.4795 78.0486 15.5354 78.0695 15.5864C78.0904 15.6374 78.1252 15.6816 78.1698 15.714C78.2145 15.7464 78.2672 15.7657 78.3222 15.7698C78.3772 15.7739 78.4323 15.7626 78.4812 15.7371L83.2762 13.2171L88.0702 15.7371C88.1192 15.7631 88.1745 15.7747 88.2298 15.7708C88.2851 15.7668 88.3381 15.7475 88.3829 15.7148C88.4277 15.6822 88.4625 15.6377 88.4832 15.5863C88.504 15.5349 88.5099 15.4787 88.5002 15.4241L87.5842 10.0861L91.4642 6.30413C91.5442 6.22413 91.5742 6.10713 91.5392 6.00013V6.00113Z" fill="#EF9546"/>
<path d="M116.539 6.00113C116.522 5.94841 116.49 5.90155 116.448 5.86585C116.406 5.83016 116.354 5.80704 116.299 5.79913L110.939 5.02013L108.542 0.164125C108.518 0.114826 108.48 0.0733484 108.433 0.0443544C108.386 0.0153604 108.332 0 108.277 0C108.222 0 108.168 0.0153604 108.121 0.0443544C108.075 0.0733484 108.037 0.114826 108.012 0.164125L105.613 5.02113L100.253 5.80013C100.199 5.80825 100.147 5.83141 100.105 5.867C100.063 5.9026 100.032 5.94922 100.015 6.00164C99.9976 6.05407 99.9954 6.11023 100.008 6.16383C100.021 6.21743 100.049 6.26636 100.088 6.30513L103.968 10.0851L103.051 15.4251C103.042 15.4795 103.049 15.5354 103.07 15.5864C103.09 15.6374 103.125 15.6816 103.17 15.714C103.214 15.7464 103.267 15.7657 103.322 15.7698C103.377 15.7739 103.432 15.7626 103.481 15.7371L108.276 13.2171L113.07 15.7371C113.119 15.7631 113.174 15.7747 113.23 15.7708C113.285 15.7668 113.338 15.7475 113.383 15.7148C113.428 15.6822 113.462 15.6377 113.483 15.5863C113.504 15.5349 113.51 15.4787 113.5 15.4241L112.584 10.0861L116.464 6.30413C116.544 6.22413 116.574 6.10713 116.539 6.00013V6.00113Z" fill="#EF9546"/>
</svg>
